<svg xmlns="http://www.w3.org/2000/svg" viewBox="0 0 100 100">
  <defs>
    <linearGradient id="heartGrad" x1="0%" y1="0%" x2="100%" y2="100%">
      <stop offset="0%" style="stop-color:#ff6b9d;stop-opacity:1" />
      <stop offset="100%" style="stop-color:#ff8a80;stop-opacity:1" />
    </linearGradient>
  </defs>
  <path fill="url(#heartGrad)" d="M50 88.9C47.8 88.9 45.7 88 44.1 86.5L14.1 57.8C5.5 49.5 5.5 35.7 14.1 27.4C18.3 23.3 23.9 21 29.8 21C35.7 21 41.3 23.3 45.5 27.4L50 31.8L54.5 27.4C58.7 23.3 64.3 21 70.2 21C76.1 21 81.7 23.3 85.9 27.4C94.5 35.7 94.5 49.5 85.9 57.8L55.9 86.5C54.3 88 52.2 88.9 50 88.9Z"/>
</svg>
